<?xml version="1.0" encoding="UTF-8"?>
<svg version="1.1" xmlns="http://www.w3.org/2000/svg" width="253" height="296">
<path d="M0 0 C83.49 0 166.98 0 253 0 C253 97.68 253 195.36 253 296 C169.51 296 86.02 296 0 296 C0 198.32 0 100.64 0 0 Z " fill="#E1E1E1" transform="translate(0,0)"/>
<path d="M0 0 C83.49 0 166.98 0 253 0 C253 97.68 253 195.36 253 296 C169.51 296 86.02 296 0 296 C0 198.32 0 100.64 0 0 Z M32 17 C31.9175 45.854375 31.835 74.70875 31.75 104.4375 C31.71358398 113.52337646 31.67716797 122.60925293 31.63964844 131.97045898 C31.62626458 140.16779025 31.62626458 140.16779025 31.6182251 148.36512756 C31.61452249 151.99531483 31.5996295 155.62526431 31.57769775 159.25538635 C31.54998125 163.90558655 31.54208632 168.55544781 31.5477109 173.20572293 C31.54653717 174.9000111 31.53877235 176.59431282 31.52313948 178.28852928 C31.26702805 207.4308785 42.38093218 233.07847991 62.25 254.37109375 C74.26074145 265.85295311 90.05033341 273.8049054 106 278 C107.49853516 278.53560547 107.49853516 278.53560547 109.02734375 279.08203125 C114.71011146 280.70256276 120.70593768 280.33838835 126.5625 280.3125 C128.44352417 280.30730347 128.44352417 280.30730347 130.36254883 280.30200195 C138.97811611 280.20060279 146.74111904 279.58770209 155 277 C155.74636719 276.80664062 156.49273437 276.61328125 157.26171875 276.4140625 C170.70082545 272.58851272 182.42738963 264.88712176 193 256 C193.85839478 255.30910278 193.85839478 255.30910278 194.73413086 254.60424805 C198.94765421 251.14516347 202.26947791 247.49068436 205.4375 243.0625 C206.14072388 242.08253052 206.14072388 242.08253052 206.8581543 241.08276367 C218.10802196 225.07651108 226.13432613 206.39984849 226.12025452 186.55886841 C226.12111053 185.83269821 226.12196655 185.10652802 226.12284851 184.35835266 C226.12449736 181.92914336 226.1189904 179.50000373 226.11352539 177.07080078 C226.11321893 175.29789164 226.11335277 173.52498237 226.11389065 171.75207329 C226.11411615 167.00991161 226.10832571 162.26777523 226.10128021 157.52561951 C226.09557984 153.07363812 226.09531679 148.62166284 226.09460449 144.16967773 C226.08935987 131.15478181 226.07539869 118.13989059 226.0625 105.125 C226.041875 76.04375 226.02125 46.9625 226 17 C161.98 17 97.96 17 32 17 Z " fill="#000000" transform="translate(0,0)"/>
<path d="M0 0 C53.46 0 106.92 0 162 0 C162.04125 25.8225 162.0825 51.645 162.125 78.25 C162.14320801 86.38946289 162.16141602 94.52892578 162.18017578 102.91503906 C162.18920898 112.89013672 162.18920898 112.89013672 162.19088745 117.5668335 C162.19274316 120.81800085 162.20020783 124.06910223 162.21115112 127.32025146 C162.22496248 131.47915807 162.22896518 135.63797 162.22614455 139.79689741 C162.22673357 141.31580242 162.23064394 142.83471105 162.23843026 144.35359621 C162.36679388 170.63400693 155.35619949 191.3163822 137 210.14453125 C133.0576978 214.01189923 128.71513462 217.13986635 124 220 C123.18402344 220.57492188 122.36804688 221.14984375 121.52734375 221.7421875 C119 223 119 223 116.48828125 222.91015625 C111.56619934 221.1097715 107.90241668 217.40487354 104 214 C103.31550781 213.4121875 102.63101563 212.824375 101.92578125 212.21875 C91.42507853 202.50613247 84.2692459 189.53663334 80 176 C80 175.01 80 174.02 80 173 C86.18349827 174.26234972 92.13240747 175.90563866 98.125 177.875 C106.35387857 180.53126537 114.61948306 182.8704217 123 185 C123.391875 183.741875 123.78375 182.48375 124.1875 181.1875 C125.36236312 177.65193062 126.72898889 174.30884623 128.3125 170.9375 C130.72596093 165.76373346 132.73034678 160.50025415 134.68310547 155.14135742 C135.94354901 151.71368522 137.26065081 148.33929058 138.75 145.00390625 C139.03238525 144.37137939 139.31477051 143.73885254 139.60571289 143.0871582 C140.39211621 141.35023863 141.193654 139.62019438 141.99609375 137.890625 C143.10825652 134.68828861 143.26150205 134.04734439 142 131 C140.23509773 128.95631198 138.46971283 127.08052016 136.54980469 125.19335938 C135.98222946 124.62373978 135.41465424 124.05412018 134.82987976 123.46723938 C132.9510534 121.58540428 131.06169856 119.71453586 129.171875 117.84375 C127.86190512 116.53683866 126.552526 115.22933493 125.24371338 113.92126465 C122.49757468 111.17973019 119.7465978 108.44318055 116.99169922 105.71044922 C113.46654891 102.21352529 109.95007977 98.70803595 106.43677902 95.19921112 C103.73147181 92.49806971 101.02334508 89.79977104 98.3141861 87.10249329 C97.0172087 85.81120046 95.72069018 84.51944656 94.42464447 83.22721863 C92.60826377 81.41774365 90.7885534 79.61168749 88.96777344 77.80664062 C88.43562729 77.27561234 87.90348114 76.74458405 87.35520935 76.19746399 C85.03153733 73.90023045 82.70707132 71.77182293 80.12701416 69.76208496 C79.42509949 69.18059692 78.72318481 68.59910889 78 68 C78 67.34 78 66.68 78 66 C79.11375 65.98582031 80.2275 65.97164063 81.375 65.95703125 C96.55076612 65.56524735 110.09604908 63.13055041 122 53 C122.62003906 52.52433594 123.24007812 52.04867187 123.87890625 51.55859375 C133.76478712 43.08814101 137.86683113 29.46485755 139 17 C134.05 17.33 129.1 17.66 124 18 C123.62875 20.2275 123.62875 20.2275 123.25 22.5 C121.27194884 32.18562981 116.6054051 39.40330026 108.95410156 45.67773438 C99.57428489 51.76131461 89.54697977 50.66838759 78.8125 50.375 C76.88741166 50.34485211 74.96227767 50.31748486 73.03710938 50.29296875 C68.35693043 50.22737932 63.67897735 50.12412769 59 50 C59.47848389 49.26322021 59.95696777 48.52644043 60.44995117 47.76733398 C61.07877197 46.79094971 61.70759277 45.81456543 62.35546875 44.80859375 C62.97832764 43.84493896 63.60118652 42.88128418 64.24291992 41.88842773 C69.06775391 33.95698257 70.72600408 26.13030408 72 17 C66.72 17 61.44 17 56 17 C56 19.64 56 22.28 56 25 C52.42924525 35.03737934 46.74913216 43.34470506 37 48 C32.10022584 49.62162677 27.90653537 50.23954108 22.75390625 50.1953125 C21.5532251 50.19031738 20.35254395 50.18532227 19.11547852 50.18017578 C17.61299561 50.16196777 16.1105127 50.14375977 14.5625 50.125 C9.756875 50.08375 4.95125 50.0425 0 50 C0 33.5 0 17 0 0 Z " fill="#020202" transform="translate(48,33)"/>
<path d="M0 0 C6.85960412 -1.66399666 13.20632476 -2.29112095 20 0 C29.08472648 5.85134965 36.34720855 14.4075954 43.621521 22.30651855 C46.33041272 25.22750408 49.09414834 28.09547361 51.85546875 30.96679688 C54.96731067 34.20637008 58.07357251 37.44949773 61.13580322 40.73609924 C65.70097852 45.62889462 70.29176313 50.34418438 75.42434692 54.64912415 C77.36922518 56.31655279 79.00711668 58.14205582 80.625 60.125 C82.75850305 62.68127094 84.79979187 64.68383655 87.5 66.625 C88.325 67.40875 89.15 68.1925 90 69 C89.74138664 74.03926602 87.76187253 78.23941438 85.6875 82.75 C85.05346853 84.16091119 84.42065461 85.57237015 83.7890625 86.984375 C83.32935059 88.00821289 83.32935059 88.00821289 82.86035156 89.05273438 C81.12204023 92.98711894 79.55221941 96.98929642 78 101 C76.26982492 100.54548816 74.54090123 100.08621143 72.8125 99.625 C71.84957031 99.36976563 70.88664062 99.11453125 69.89453125 98.8515625 C67 98 67 98 64.76171875 97.0234375 C62.2835711 96.10508575 60.11061866 95.61527795 57.5222168 95.15112305 C51.82641146 94.03620027 46.3947984 92.35786586 40.8828125 90.55859375 C39.86323456 90.23085464 38.84365662 89.90311554 37.79318237 89.56544495 C34.56876626 88.52794926 31.34681394 87.48304522 28.125 86.4375 C24.88130332 85.38986584 21.63711436 84.34377965 18.39254761 83.29884338 C16.38194735 82.65078225 14.37193279 82.00090046 12.36257935 81.34898376 C11.45418304 81.0552034 10.54578674 80.76142303 9.60986328 80.45874023 C8.81395782 80.20051987 8.01805237 79.9422995 7.19802856 79.67625427 C5.14447173 79.04444875 3.08935677 78.49897616 1 78 C0.86722656 78.66386719 0.73445313 79.32773438 0.59765625 80.01171875 C-0.26822917 84.34114583 -1.13411458 88.67057292 -2 93 C-1.24847656 92.93941406 -0.49695313 92.87882812 0.27734375 92.81640625 C9.30708749 93.26173464 19.37731276 96.07512472 27 101 C30.45928134 105.30652173 31.08543043 110.60610331 31.72998047 115.95361328 C33.55943517 129.81843182 42.44305552 141.25666523 51.1875 151.625 C51.67412109 152.20491699 52.16074219 152.78483398 52.66210938 153.38232422 C55.04057403 156.11240899 57.29930912 158.32420868 60.36328125 160.2734375 C61.66845703 161.12808594 61.66845703 161.12808594 63 162 C63 162.66 63 163.32 63 164 C57.35367105 165.59777742 52.29700948 166.35566991 46.4375 166.3125 C45.66100098 166.30903564 44.88450195 166.30557129 44.08447266 166.30200195 C33.68013416 166.1098794 23.57526571 164.1272697 14 160 C13.31035156 159.72542969 12.62070313 159.45085937 11.91015625 159.16796875 C-6.81275822 151.43530636 -21.07994009 136.43614714 -29.71875 118.22265625 C-34.77829167 105.49667491 -36.43910256 92.31163724 -36.84448242 78.71582031 C-36.90627099 77.07785578 -36.99497397 75.44067602 -37.11108398 73.80566406 C-38.03001956 60.56979088 -38.03001956 60.56979088 -34.65600586 56.29864502 C-31.34056396 53.27138108 -27.63115489 51.08943967 -23.69148254 48.97514343 C-12.92457879 42.76799958 -7.01894818 30.15015738 -3.6484375 18.65625 C-2.00005202 12.49324079 -0.8811976 6.31532797 0 0 Z " fill="#030303" transform="translate(84,99)"/>
<path d="M0 0 C6.6 0 13.2 0 20 0 C20.65483239 12.44181545 17.7183832 21.36171721 10.390625 31.4296875 C8 34 8 34 0 40 C0 26.8 0 13.6 0 0 Z " fill="#040404" transform="translate(48,99)"/>
<path d="M0 0 C3.95403662 0.26360244 5.65370756 0.86143155 8.75 3.25 C11.41539031 7.24808546 11.59149704 10.54751653 10.75 15.25 C8.3125 18.25 8.3125 18.25 5.75 20.25 C5.42 20.58 5.09 20.91 4.75 21.25 C1.81771337 21.54322866 -0.39491883 21.75004247 -3.25 21.25 C-6.1875 18.8125 -6.1875 18.8125 -8.25 16.25 C-8.58 15.92 -8.91 15.59 -9.25 15.25 C-9.69166754 12.19618444 -9.73223087 9.29894358 -9.25 6.25 C-6.8125 3.25 -6.8125 3.25 -4.25 1.25 C-3.25 0.25 -3.25 0.25 0 0 Z " fill="#141414" transform="translate(213.25,258.75)"/>
<path d="M0 0 C4.27175708 1.64694249 6.95870017 4.77052484 10.0625 8 C14.24121866 12.32816662 14.24121866 12.32816662 19 16 C17.25 19.875 17.25 19.875 15 21 C10.73803412 21.43540712 7.08250484 21.47065428 3.125 19.75 C-0.66030081 16.63269345 -2.11702512 14.42482825 -2.875 9.5625 C-3.22961424 5.50785415 -2.61728343 3.24543145 0 0 Z " fill="#E9E9E9" transform="translate(113,131)"/>
<path d="M0 0 C3.95403662 0.26360244 5.65370756 0.86143155 8.75 3.25 C11.41539031 7.24808546 11.59149704 10.54751653 10.75 15.25 C8.3125 18.25 8.3125 18.25 5.75 20.25 C5.42 20.58 5.09 20.91 4.75 21.25 C1.81771337 21.54322866 -0.39491883 21.75004247 -3.25 21.25 C-6.1875 18.8125 -6.1875 18.8125 -8.25 16.25 C-8.58 15.92 -8.91 15.59 -9.25 15.25 C-9.69166754 12.19618444 -9.73223087 9.29894358 -9.25 6.25 C-6.8125 3.25 -6.8125 3.25 -4.25 1.25 C-3.25 0.25 -3.25 0.25 0 0 Z M-5.1875 5.3125 C-6.47678657 8.87699817 -6.66825993 11.48566063 -6.25 15.25 C-5.39780077 17.35242444 -5.39780077 17.35242444 -3.25 18.25 C-0.15437069 18.64309578 1.79336605 18.87338668 4.75 18.25 C7.49612994 16.33817732 7.49612994 16.33817732 8.75 13.25 C8.75 9.47089384 8.58289714 7.24306967 6.125 4.3125 C1.91630238 2.42966159 -1.86438595 1.77499149 -5.1875 5.3125 Z " fill="#919191" transform="translate(213.25,258.75)"/>
<path d="M0 0 C0.66 0 1.32 0 2 0 C2 3.3 2 6.6 2 10 C2.66 10 3.32 10 4 10 C4 9.01 4 8.02 4 7 C6.99693138 7.99897713 8.02709413 8.65130253 10 11 C10 11.66 10 12.32 10 13 C2.67784643 13.36010591 2.67784643 13.36010591 0 11.9375 C-1.54966419 8.93502564 -1.2369106 6.3167484 -1 3 C-0.67 2.01 -0.34 1.02 0 0 Z " fill="#111111" transform="translate(208,264)"/>
<path d="M0 0 C2.31 0 4.62 0 7 0 C6.979375 0.928125 6.95875 1.85625 6.9375 2.8125 C6.84230396 6.02286011 6.84230396 6.02286011 8 9 C5 9 5 9 3.3125 7.5 C2.879375 7.005 2.44625 6.51 2 6 C2 6.99 2 7.98 2 9 C1.34 9 0.68 9 0 9 C0 6.03 0 3.06 0 0 Z " fill="#B1B1B1" transform="translate(210,265)"/>
<path d="M0 0 C7.07201547 -0.59932334 7.07201547 -0.59932334 11 1.9375 C13.68514232 6.04912418 13.46788961 9.22752594 13 14 C12.34 14 11.68 14 11 14 C10.89042969 13.37351562 10.78085938 12.74703125 10.66796875 12.1015625 C10.50941406 11.28429687 10.35085937 10.46703125 10.1875 9.625 C10.03667969 8.81289063 9.88585937 8.00078125 9.73046875 7.1640625 C9.12455058 4.64179359 9.12455058 4.64179359 6 3 C3.67612053 2.60612212 1.34206251 2.26513915 -1 2 C-0.67 1.34 -0.34 0.68 0 0 Z " fill="#ADADAD" transform="translate(211,260)"/>
<path d="M0 0 C0 0.33 0 0.66 0 1 C-1.3921875 1.061875 -1.3921875 1.061875 -2.8125 1.125 C-6.21295663 1.68627851 -6.21295663 1.68627851 -7.8125 4.6875 C-8.93745725 7.82553866 -9.60666793 10.69601063 -10 14 C-10.33 14 -10.66 14 -11 14 C-11.64675438 10.64456142 -12.11265531 7.42257556 -12 4 C-8.62345954 -0.43170935 -5.33127883 -0.41813952 0 0 Z " fill="#848484" transform="translate(217,259)"/>
<path d="M0 0 C6.52307692 -0.36923077 6.52307692 -0.36923077 8.9375 1.5 C9.288125 1.995 9.63875 2.49 10 3 C9.01 4.32 8.02 5.64 7 7 C7 5.68 7 4.36 7 3 C4.69 3 2.38 3 0 3 C0 2.01 0 1.02 0 0 Z " fill="#2B2B2B" transform="translate(210,262)"/>
<path d="M0 0 C1.32 0.33 2.64 0.66 4 1 C4.66 3.31 5.32 5.62 6 8 C5.01 8 4.02 8 3 8 C0.19744677 5.0936485 0 4.21174952 0 0 Z " fill="#7B7B7B" transform="translate(212,266)"/>
<path d="M0 0 C0.66 1.32 1.32 2.64 2 4 C-1.2837938 6.48772258 -2.61198583 7.03180444 -6.8125 6.6875 C-8.3903125 6.3471875 -8.3903125 6.3471875 -10 6 C-10 5.67 -10 5.34 -10 5 C-8.906875 4.9175 -7.81375 4.835 -6.6875 4.75 C-2.96723336 4.36310791 -2.96723336 4.36310791 -1.0625 1.9375 C-0.711875 1.298125 -0.36125 0.65875 0 0 Z " fill="#8F8F8F" transform="translate(221,272)"/>
<path d="M0 0 C0.33 0.99 0.66 1.98 1 3 C-0.43359375 5.04296875 -0.43359375 5.04296875 -2.4375 7.1875 C-3.09621094 7.90292969 -3.75492188 8.61835938 -4.43359375 9.35546875 C-4.95050781 9.89816406 -5.46742187 10.44085938 -6 11 C-6.66 10.67 -7.32 10.34 -8 10 C-5.36 6.7 -2.72 3.4 0 0 Z " fill="#D1D1D1" transform="translate(61,125)"/>
<path d="M0 0 C2.18975773 3.28463659 2.99806563 6.20696275 4 10 C3.01 10 2.02 10 1 10 C0 9 0 9 -0.09765625 6.93359375 C-0.08605469 6.10988281 -0.07445312 5.28617187 -0.0625 4.4375 C-0.05347656 3.61121094 -0.04445312 2.78492188 -0.03515625 1.93359375 C-0.02355469 1.29550781 -0.01195312 0.65742188 0 0 Z " fill="#9E9E9E" transform="translate(204,265)"/>
</svg>
